<?xml version="1.0" standalone="no"?>
<!DOCTYPE svg PUBLIC "-//W3C//DTD SVG 20010904//EN"
 "http://www.w3.org/TR/2001/REC-SVG-20010904/DTD/svg10.dtd">
<svg version="1.0" xmlns="http://www.w3.org/2000/svg"
 width="3000.000000pt" height="3000.000000pt" viewBox="0 0 3000.000000 3000.000000"
 preserveAspectRatio="xMidYMid meet">

<g transform="translate(0.000000,3000.000000) scale(0.100000,-0.100000)"
fill="#000000" stroke="none">
<path d="M6480 27720 l-885 -5 -70 -24 c-278 -92 -435 -364 -370 -639 8 -34
24 -81 36 -104 11 -22 17 -44 12 -48 -4 -4 -791 -647 -1748 -1430 -957 -782
-1749 -1431 -1760 -1441 -19 -19 -13 -19 271 -19 l290 0 1603 1330 c882 732
1609 1330 1615 1330 6 0 33 -7 60 -15 58 -18 93 -18 464 -10 l283 7 -14 -33
c-8 -19 -279 -605 -602 -1304 -323 -698 -589 -1279 -592 -1290 -4 -19 0 -20
87 -19 110 2 58 -40 436 360 l275 290 469 990 c259 544 471 992 472 996 2 4
163 8 358 8 l355 1 1187 -830 1186 -831 288 0 287 0 -1324 891 c-728 490
-1331 897 -1339 905 -12 12 -11 17 12 41 42 45 86 121 110 192 34 98 32 249
-4 348 -77 216 -297 370 -513 361 -27 -2 -448 -5 -935 -8z"/>
<path d="M10810 24735 c0 -3 154 -168 341 -365 243 -256 348 -360 363 -360 14
0 50 29 100 79 l78 79 -278 187 c-154 104 -344 233 -424 287 -125 85 -180 113
-180 93z"/>
<path d="M10442 24647 l-22 -23 163 -112 c126 -88 151 -102 112 -65 -27 26
-91 87 -141 135 l-90 88 -22 -23z"/>
<path d="M15270 23245 l0 -205 320 0 320 0 0 -290 0 -290 -245 0 -245 0 0
-270 0 -270 1090 0 1090 0 0 270 0 270 -250 0 -250 0 0 290 0 290 365 0 365 0
-2 203 -3 202 -1277 3 -1278 2 0 -205z m1150 -495 l0 -290 -175 0 -175 0 0
290 0 290 175 0 175 0 0 -290z m526 10 c0 -151 -1 -281 -4 -287 -3 -10 -49
-13 -183 -13 l-179 0 0 290 0 290 183 -2 182 -3 1 -275z"/>
<path d="M5240 21520 c-497 -5 -506 -5 -570 -28 -232 -84 -395 -254 -467 -488
-17 -57 -18 -270 -23 -5152 -5 -5037 -5 -5093 -24 -5060 -156 267 -1098 1691
-1108 1675 -4 -7 -10 -31 -14 -53 -6 -41 -3 -47 157 -280 255 -374 622 -936
866 -1326 l123 -198 0 -190 c0 -172 -5 -212 -24 -181 -11 17 -344 280 -731
576 -658 504 -883 692 -1165 974 -263 264 -477 530 -601 750 l-54 94 -16 -54
c-20 -65 -23 -59 103 -247 227 -338 534 -661 988 -1038 204 -169 236 -193 700
-544 228 -172 502 -382 608 -467 l192 -154 0 -1844 0 -1845 -867 0 c-478 0
-1081 0 -1340 0 l-473 0 0 -415 0 -415 1538 0 1537 0 80 -26 c71 -24 104 -28
285 -35 113 -4 314 -8 448 -8 l242 -1 0 -297 c1 -318 -39 -2323 -46 -2360 -3
-17 -11 -23 -32 -23 -15 0 -37 -7 -49 -15 -29 -21 -60 -107 -69 -193 -8 -82
-2 -94 71 -163 25 -24 59 -66 75 -94 16 -28 39 -60 52 -72 61 -56 253 -58 303
-3 18 20 29 89 41 255 5 71 264 2044 367 2800 l22 160 75 0 75 0 27 -185 c110
-763 378 -2700 377 -2725 -2 -80 0 -156 8 -220 7 -62 11 -71 35 -83 42 -20
149 -27 193 -12 45 15 118 79 134 118 8 18 36 41 84 67 l72 40 6 85 c7 99 -3
175 -30 210 -25 34 -64 47 -100 33 l-29 -10 -6 181 c-5 157 -22 1496 -29 2254
l-2 252 9005 0 c4953 0 9030 3 9060 6 91 9 171 32 255 73 168 83 288 221 357
411 l23 65 3 1432 c1 788 4 1433 6 1433 12 0 323 -111 468 -166 l166 -64 98
35 c405 147 854 477 1125 828 457 592 634 1455 509 2483 -38 314 -109 649
-143 675 -69 55 -268 68 -456 29 -321 -65 -720 -243 -1221 -543 -178 -106
-399 -251 -480 -315 l-65 -51 -5 4547 -5 4547 -31 86 c-74 207 -230 362 -439
436 l-80 28 -765 3 c-1529 5 -18909 7 -19400 2z m12606 -667 c-4 -21 -22 -102
-40 -181 l-34 -144 27 7 c14 4 27 7 27 8 1 1 19 79 40 172 l39 170 538 3 537
2 -1 -217 c-1 -526 -45 -3532 -51 -3538 -4 -4 -85 -13 -180 -21 -95 -7 -199
-16 -231 -19 -56 -6 -58 -5 -48 14 51 95 -92 709 -252 1082 -73 169 -81 302
-40 649 l6 50 -50 0 -50 0 -7 -122 c-20 -343 -45 -383 -246 -383 -85 0 -111 4
-133 18 l-27 17 0 199 c0 185 -1 199 -20 216 -11 10 -20 15 -20 11 0 -20 -85
-397 -123 -546 -45 -175 -88 -420 -127 -730 -12 -91 -30 -201 -42 -245 -26
-102 -21 -189 14 -263 l25 -52 -21 -5 c-42 -8 -347 -28 -352 -22 -3 3 69 327
161 721 154 662 166 719 159 776 -4 36 -10 57 -14 49 -4 -8 -88 -360 -186
-783 -137 -586 -183 -770 -195 -773 -14 -4 -14 -15 -2 -105 7 -56 15 -103 17
-105 3 -3 289 20 485 40 l23 2 -1 -125 c-3 -249 15 -334 181 -840 85 -262 87
-289 18 -366 -46 -53 -100 -155 -100 -191 0 -16 6 -23 19 -23 31 0 406 144
429 165 30 27 21 118 -29 285 -27 92 -49 249 -49 357 0 115 -16 189 -81 389
-44 135 -52 170 -52 234 0 48 6 88 17 113 15 34 19 37 61 39 25 0 51 1 57 2
19 2 60 -116 168 -486 108 -370 174 -577 196 -620 8 -16 21 -28 30 -28 13 0
14 -16 11 -109 -4 -108 -4 -110 22 -134 35 -34 184 -77 287 -84 77 -5 82 -4
98 18 31 45 14 87 -55 134 -46 33 -88 111 -119 225 -57 208 -151 585 -164 659
-9 46 -16 109 -16 140 0 76 37 323 50 331 5 3 132 17 282 29 150 13 277 27
281 31 5 4 4 24 -1 44 -10 34 33 3853 43 3884 7 19 4718 17 4830 -3 237 -42
435 -231 490 -467 13 -60 15 -775 13 -6900 l-3 -6833 -22 -65 c-64 -187 -216
-339 -403 -403 l-65 -22 -8317 -3 -8318 -2 -1 217 c0 120 -2 234 -4 253 -2 19
-6 271 -9 560 -6 506 -5 534 19 790 14 146 25 270 25 276 0 6 -37 21 -82 32
-124 30 -194 60 -235 98 l-36 34 6 133 c6 145 50 546 101 927 18 135 31 247
30 249 -2 1 -27 6 -56 11 -51 7 -50 7 23 6 87 -1 90 1 156 86 24 32 79 84 121
115 42 31 112 85 156 121 69 58 80 64 98 53 24 -15 53 7 219 172 87 85 121
126 132 159 36 101 200 790 210 882 10 97 10 100 -11 114 -17 11 -22 24 -22
58 0 23 5 46 10 49 6 3 10 17 10 31 0 14 9 42 20 63 l19 39 -21 14 c-25 17
-17 38 15 38 16 0 26 11 39 40 17 40 37 50 55 28 6 -7 13 -64 17 -127 8 -131
21 -172 31 -96 3 28 9 73 13 100 l8 50 32 -44 c38 -52 39 -75 17 -292 -8 -79
-24 -319 -35 -534 -11 -214 -25 -439 -31 -500 -12 -130 -13 -132 -229 -443
-109 -156 -136 -201 -128 -215 7 -13 -2 -31 -42 -79 -27 -35 -50 -66 -50 -70
0 -5 479 -8 1065 -8 l1065 0 0 -615 0 -615 695 0 695 0 0 615 0 615 440 0 440
0 0 775 0 775 -440 0 -440 0 0 539 0 539 -62 6 c-35 4 -178 13 -318 21 -385
23 -867 54 -942 61 l-68 6 0 -586 0 -586 -605 0 c-333 0 -605 2 -605 5 0 2
477 977 1060 2166 584 1189 1059 2163 1057 2166 -2 2 -361 73 -798 158 -437
85 -801 156 -811 159 -13 3 -44 -63 -156 -338 -77 -187 -332 -807 -565 -1376
-1119 -2726 -1619 -3945 -1665 -4056 l-49 -120 28 -17 c16 -9 36 -32 46 -51 9
-20 20 -36 25 -36 4 0 4 -8 -1 -17 -5 -10 -19 -103 -31 -208 -43 -393 -104
-754 -135 -816 -34 -64 -148 -92 -380 -93 -178 -1 -258 10 -327 45 -30 15 -39
28 -52 71 -25 82 -217 850 -214 853 2 1 18 10 36 19 l32 17 0 386 0 386 26
-49 c65 -123 172 -245 244 -278 41 -19 62 -21 225 -20 112 1 206 6 249 15 l68
14 -43 32 c-59 42 -127 109 -150 147 -22 37 -25 99 -5 116 8 6 30 35 47 63 18
29 34 53 35 55 1 2 12 -6 24 -18 24 -24 102 -60 129 -60 17 0 17 3 -1 55 -27
81 -33 165 -18 247 l14 70 81 53 c137 88 194 165 203 271 4 47 1 56 -23 79
-22 23 -32 26 -62 22 -44 -8 -160 -62 -238 -111 l-56 -37 -77 28 c-69 25 -90
28 -208 28 -130 0 -130 0 -205 -37 -83 -41 -171 -122 -226 -209 l-33 -53 2
4784 3 4785 27 67 c87 218 270 365 492 398 28 4 2622 8 5765 9 l5714 1 -7 -37z
m-9598 -7992 c43 -30 92 -89 109 -130 20 -47 41 -71 59 -64 19 7 17 26 -10
106 -13 38 -21 77 -19 88 7 26 39 42 68 35 39 -10 58 -68 66 -204 4 -68 9
-126 12 -128 2 -3 12 -1 21 2 15 6 17 14 11 51 -5 35 -2 50 15 78 12 19 28 35
36 35 26 0 49 -52 50 -114 1 -45 6 -63 20 -73 52 -38 65 77 18 163 -35 64 -27
87 28 92 31 3 38 -1 58 -32 18 -29 21 -48 19 -108 -2 -49 1 -73 9 -73 6 0 33
27 59 59 77 95 96 98 141 20 34 -59 27 -76 -43 -100 -79 -28 -109 -67 -225
-296 l-90 -176 -142 55 c-79 30 -181 69 -228 87 -96 36 -89 20 -75 162 10 103
3 127 -46 176 -40 40 -44 61 -17 96 17 20 26 15 78 -40 56 -61 72 -57 74 15 1
32 -6 55 -27 86 -38 57 -80 81 -143 81 -88 0 -101 53 -18 76 46 13 91 4 132
-25z m-2515 -3563 c117 -416 167 -648 167 -784 0 -68 -2 -76 -31 -109 -41 -46
-99 -80 -176 -101 l-63 -17 0 -51 c0 -28 -4 -67 -9 -86 -5 -19 -15 -61 -21
-93 -11 -54 -13 -57 -38 -55 l-26 3 -33 -210 c-18 -115 -62 -403 -98 -639
l-66 -429 22 -106 c23 -114 22 -143 -7 -331 l-16 -105 46 -115 c51 -127 55
-150 26 -150 -54 0 -155 172 -225 382 -40 122 -47 185 -65 638 -6 146 -15 376
-21 512 -11 262 -7 346 31 621 12 87 16 145 11 156 -30 55 143 907 228 1128
43 110 59 126 176 172 55 22 102 40 105 40 3 1 40 -122 83 -271z"/>
<path d="M17764 20436 c-10 -8 -17 -16 -14 -19 8 -8 50 11 50 23 0 14 -13 13
-36 -4z"/>
<path d="M17714 20141 c-34 -42 -52 -83 -69 -157 -32 -140 -31 -138 -80 -162
-65 -31 -131 -96 -159 -156 -26 -53 -45 -170 -53 -319 -8 -142 43 -295 114
-343 102 -68 362 -50 535 37 155 78 232 239 214 451 -8 93 -26 147 -72 215
-45 66 -102 103 -173 114 -31 4 -83 17 -116 29 -45 16 -76 21 -122 18 -35 -2
-63 -1 -63 2 0 3 16 70 34 150 19 80 33 146 33 146 -1 1 -11 -10 -23 -25z"/>
<path d="M18456 19883 c-56 -17 -55 -11 -10 -160 19 -62 29 -82 37 -74 6 6 31
11 55 11 37 0 43 3 38 18 -20 70 -68 222 -69 221 -1 -1 -24 -8 -51 -16z"/>
<path d="M9300 19449 c-465 -58 -761 -359 -830 -844 -14 -102 -12 -306 5 -415
70 -460 331 -744 758 -825 120 -23 354 -20 480 6 243 49 436 175 566 369 137
205 201 498 173 793 -18 198 -48 302 -128 459 -39 76 -66 111 -144 189 -136
137 -272 210 -465 250 -108 22 -311 31 -415 18z m318 -335 c209 -55 351 -225
407 -490 20 -94 23 -318 6 -414 -62 -340 -272 -540 -569 -540 -170 0 -291 50
-399 164 -126 133 -193 331 -193 573 0 404 186 675 495 722 70 11 178 4 253
-15z"/>
<path d="M11570 19449 c-465 -58 -761 -359 -830 -844 -14 -102 -12 -306 5
-415 70 -460 331 -744 758 -825 120 -23 354 -20 480 6 243 49 436 175 566 369
137 205 201 498 173 793 -18 198 -48 302 -128 459 -39 76 -66 111 -144 189
-136 137 -272 210 -465 250 -108 22 -311 31 -415 18z m318 -335 c209 -55 351
-225 407 -490 20 -94 23 -318 6 -414 -62 -340 -272 -540 -569 -540 -170 0
-291 50 -399 164 -126 133 -193 331 -193 573 0 404 186 675 495 722 70 11 178
4 253 -15z"/>
<path d="M15580 19449 c-339 -40 -564 -222 -601 -486 -25 -171 22 -317 138
-432 109 -108 261 -176 550 -246 293 -72 391 -117 450 -207 23 -33 28 -55 31
-115 4 -63 1 -81 -22 -127 -15 -30 -43 -69 -63 -87 -128 -112 -387 -141 -548
-63 -83 41 -135 103 -200 240 -78 163 -110 194 -200 194 -128 0 -199 -98 -175
-239 33 -189 194 -381 390 -462 134 -56 238 -72 450 -66 164 4 195 7 275 31
141 43 238 98 325 185 122 122 170 243 170 426 0 172 -40 276 -145 380 -107
105 -263 173 -603 259 -222 57 -302 86 -365 132 -114 83 -116 223 -6 318 73
62 135 80 279 81 209 0 273 -38 385 -230 71 -121 101 -152 160 -160 115 -18
209 71 207 195 -2 152 -119 307 -298 398 -153 77 -366 107 -584 81z"/>
<path d="M13228 19406 c-60 -23 -86 -45 -110 -94 l-23 -47 -3 -843 c-2 -552 1
-863 8 -900 22 -119 93 -177 210 -170 82 4 131 37 164 107 20 44 21 64 24 383
l3 336 297 5 c263 4 307 7 382 26 134 35 224 83 306 165 116 117 158 230 158
431 1 137 -11 199 -61 303 -66 140 -189 237 -362 285 -71 19 -103 21 -516 24
-355 2 -447 0 -477 -11z m785 -309 c96 -24 147 -62 186 -139 29 -58 34 -76 34
-144 1 -98 -21 -169 -69 -218 -81 -83 -169 -105 -451 -113 l-213 -6 0 323 0
322 228 -5 c152 -3 246 -10 285 -20z"/>
<path d="M20321 15757 c-5 -12 -129 -314 -276 -672 -315 -768 -1292 -3148
-1856 -4523 -219 -534 -399 -977 -399 -982 0 -7 554 -10 1625 -10 l1625 0 0
-615 0 -615 700 0 700 0 0 615 0 615 440 0 440 0 0 775 0 775 -440 0 -440 0 0
540 c0 297 -1 540 -2 540 -2 0 -284 18 -628 40 -344 21 -658 42 -697 46 l-73
6 0 -586 0 -586 -600 0 c-330 0 -600 4 -600 8 0 4 477 979 1060 2167 582 1187
1058 2160 1056 2162 -1 2 -362 73 -802 158 -439 86 -805 158 -812 160 -7 3
-17 -5 -21 -18z"/>
<path d="M14995 15709 c-695 -67 -1333 -540 -1764 -1312 -510 -912 -654 -2131
-380 -3232 271 -1090 934 -1928 1734 -2194 467 -155 935 -123 1380 93 817 396
1420 1362 1595 2551 60 412 62 931 4 1335 -106 742 -370 1389 -775 1901 -168
212 -429 446 -649 582 -109 66 -289 150 -411 191 -241 80 -488 108 -734 85z
m250 -1101 c156 -39 337 -218 473 -468 458 -844 512 -2536 115 -3550 -196
-499 -455 -760 -732 -737 -430 36 -790 748 -907 1797 -22 196 -30 764 -15 986
61 872 316 1600 656 1871 132 105 263 138 410 101z"/>
<path d="M11671 7665 c-69 -20 -112 -46 -156 -97 -56 -66 -79 -137 -79 -248 0
-162 56 -260 181 -322 58 -28 77 -33 144 -33 68 0 84 4 145 35 118 60 178 169
178 320 0 150 -61 260 -174 318 -80 40 -160 49 -239 27z m170 -76 c57 -20 100
-59 128 -118 23 -49 26 -68 26 -156 -1 -84 -5 -108 -24 -148 -42 -85 -111
-127 -211 -127 -99 0 -168 40 -213 125 -19 34 -22 56 -22 155 0 99 3 121 22
155 27 50 68 89 113 109 42 18 134 20 181 5z"/>
<path d="M15335 7670 c-133 -28 -207 -97 -250 -229 -24 -72 -17 -217 12 -282
63 -140 222 -219 380 -190 64 12 141 44 196 83 l27 19 0 130 0 129 -145 0
-145 0 0 -40 0 -40 105 0 106 0 -3 -72 -3 -73 -54 -29 c-70 -38 -174 -47 -248
-22 -123 41 -184 177 -153 340 26 137 108 206 244 206 109 -1 176 -40 201
-119 6 -20 11 -22 38 -17 17 4 35 10 39 14 15 15 -44 113 -85 143 -64 46 -177
68 -262 49z"/>
<path d="M17671 7665 c-69 -20 -112 -46 -156 -97 -56 -66 -79 -137 -79 -248 0
-162 56 -260 181 -322 58 -28 77 -33 144 -33 68 0 84 4 145 35 118 60 178 169
178 320 0 150 -61 260 -174 318 -80 40 -160 49 -239 27z m170 -76 c57 -20 100
-59 128 -118 23 -49 26 -68 26 -156 -1 -84 -5 -108 -24 -148 -42 -85 -111
-127 -211 -127 -99 0 -168 40 -213 125 -19 34 -22 56 -22 155 0 99 3 121 22
155 27 50 68 89 113 109 42 18 134 20 181 5z"/>
<path d="M19851 7665 c-69 -20 -112 -46 -156 -97 -56 -66 -79 -137 -79 -248 0
-162 56 -260 181 -322 58 -28 77 -33 144 -33 68 0 84 4 145 35 118 60 178 169
178 320 0 150 -61 260 -174 318 -80 40 -160 49 -239 27z m170 -76 c57 -20 100
-59 128 -118 23 -49 26 -68 26 -156 -1 -84 -5 -108 -24 -148 -42 -85 -111
-127 -211 -127 -99 0 -168 40 -213 125 -19 34 -22 56 -22 155 0 99 3 121 22
155 27 50 68 89 113 109 42 18 134 20 181 5z"/>
<path d="M9420 7320 l0 -350 255 0 255 0 0 40 0 40 -215 0 -215 0 0 120 0 120
195 0 195 0 0 40 0 40 -195 0 -195 0 0 110 0 110 205 0 205 0 0 40 0 40 -245
0 -245 0 0 -350z"/>
<path d="M10060 7320 l0 -350 40 0 40 0 0 156 0 156 99 -4 c122 -4 121 -3 238
-180 l84 -128 51 0 c50 0 50 0 36 23 -8 12 -41 64 -73 114 -31 51 -79 113
-107 138 -32 29 -45 46 -37 49 8 3 31 10 52 16 111 34 159 175 94 271 -52 76
-104 89 -348 89 l-169 0 0 -350z m400 255 c59 -30 77 -94 44 -156 -25 -48 -65
-59 -224 -59 l-140 0 0 115 0 115 145 0 c110 0 153 -4 175 -15z"/>
<path d="M10760 7320 l0 -350 40 0 40 0 0 156 0 156 99 -4 c122 -4 121 -3 238
-180 l84 -128 51 0 c50 0 50 0 36 23 -8 12 -41 64 -73 114 -31 51 -79 113
-107 138 -32 29 -45 46 -37 49 8 3 31 10 52 16 111 34 159 175 94 271 -52 76
-104 89 -348 89 l-169 0 0 -350z m400 255 c59 -30 77 -94 44 -156 -25 -48 -65
-59 -224 -59 l-140 0 0 115 0 115 145 0 c110 0 153 -4 175 -15z"/>
<path d="M12210 7320 l0 -350 40 0 40 0 0 156 0 156 99 -4 c122 -4 121 -3 238
-180 l84 -128 51 0 c50 0 50 0 36 23 -8 12 -41 64 -73 114 -31 51 -79 113
-107 138 -32 29 -45 46 -37 49 8 3 31 10 52 16 111 34 159 175 94 271 -52 76
-104 89 -348 89 l-169 0 0 -350z m400 255 c59 -30 77 -94 44 -156 -25 -48 -65
-59 -224 -59 l-140 0 0 115 0 115 145 0 c110 0 153 -4 175 -15z"/>
<path d="M13880 7320 l0 -350 40 0 40 0 0 144 0 143 144 5 c129 4 149 7 192
29 93 48 130 172 82 269 -45 89 -111 110 -343 110 l-155 0 0 -350z m396 236
c30 -30 34 -40 34 -88 0 -105 -41 -128 -225 -128 l-125 0 0 125 0 125 141 0
141 0 34 -34z"/>
<path d="M14508 7323 l-134 -348 39 -3 c21 -2 41 -1 44 2 3 2 22 51 43 108
l38 103 149 3 150 3 40 -108 41 -108 46 -3 c25 -2 46 0 46 3 0 4 -64 161 -141
351 l-142 344 -42 0 -42 0 -135 -347z m242 95 c27 -75 50 -139 50 -142 0 -3
-52 -6 -116 -6 -107 0 -116 1 -109 18 41 105 84 225 90 253 4 19 10 38 13 43
6 11 6 13 72 -166z"/>
<path d="M15850 7320 l0 -350 255 0 255 0 0 40 0 40 -215 0 -215 0 0 120 0
120 195 0 195 0 0 40 0 40 -195 0 -195 0 0 110 0 110 205 0 205 0 0 40 0 40
-245 0 -245 0 0 -350z"/>
<path d="M16760 7320 l0 -350 40 0 40 0 2 276 3 277 184 -277 184 -276 44 0
43 0 0 350 0 350 -40 0 -40 0 0 -275 c0 -151 -3 -275 -7 -275 -5 0 -89 124
-188 275 l-180 274 -42 1 -43 0 0 -350z"/>
<path d="M18160 7630 l0 -40 115 0 115 0 0 -310 0 -310 40 0 40 0 0 310 0 310
115 0 115 0 0 40 0 40 -270 0 -270 0 0 -40z"/>
<path d="M19050 7320 l0 -350 45 0 45 0 0 160 0 160 160 0 160 0 0 40 0 40
-160 0 -160 0 0 110 0 110 185 0 185 0 0 40 0 40 -230 0 -230 0 0 -350z"/>
<path d="M20392 7408 c3 -262 3 -263 30 -318 32 -66 85 -104 166 -121 145 -30
287 35 323 148 8 24 14 134 16 296 l5 257 -46 0 -46 0 0 -252 c0 -278 -4 -299
-63 -342 -24 -18 -43 -21 -117 -21 -99 0 -128 13 -165 76 -18 31 -20 56 -23
287 l-4 252 -40 0 -40 0 4 -262z"/>
<path d="M21090 7320 l0 -350 40 0 40 0 2 276 3 277 184 -277 184 -276 44 0
43 0 0 350 0 350 -40 0 -40 0 0 -275 c0 -151 -3 -275 -7 -275 -5 0 -89 124
-188 275 l-180 274 -42 1 -43 0 0 -350z"/>
<path d="M21790 7321 l0 -351 140 0 c218 0 299 26 359 117 44 66 61 132 61
234 0 164 -55 272 -162 319 -47 21 -72 24 -225 28 l-173 4 0 -351z m371 246
c34 -18 51 -36 74 -82 28 -54 30 -66 30 -165 0 -98 -2 -111 -30 -166 -45 -88
-82 -104 -242 -104 l-123 0 0 270 0 270 123 0 c110 0 129 -3 168 -23z"/>
<path d="M12950 7015 l0 -45 45 0 45 0 0 45 0 45 -45 0 -45 0 0 -45z"/>
<path d="M13270 7015 l0 -45 45 0 45 0 0 45 0 45 -45 0 -45 0 0 -45z"/>
<path d="M13590 7015 l0 -45 45 0 45 0 0 45 0 45 -45 0 -45 0 0 -45z"/>
</g>
</svg>
